<svg width="31" height="24" viewBox="0 0 31 24" fill="none" xmlns="http://www.w3.org/2000/svg">
<path d="M5.3934 4.3934C2.58035 7.20644 1 11.0218 1 15H7C7 12.6131 7.94821 10.3239 9.63604 8.63604L5.3934 4.3934Z" fill="black" stroke="white"/>
<mask id="path-2-inside-1_330_8749" fill="white">
<path d="M16 0C12.0218 -4.74401e-08 8.20645 1.58035 5.3934 4.3934L9.63604 8.63604C11.3239 6.94821 13.6131 6 16 6V0Z"/>
</mask>
<path d="M16 0C12.0218 -4.74401e-08 8.20645 1.58035 5.3934 4.3934L9.63604 8.63604C11.3239 6.94821 13.6131 6 16 6V0Z" fill="white" stroke="#020202" stroke-width="2" mask="url(#path-2-inside-1_330_8749)"/>
<mask id="path-3-inside-2_330_8749" fill="white">
<path d="M26.6066 4.3934C23.7936 1.58035 19.9782 4.74401e-08 16 0V6C18.3869 6 20.6761 6.94821 22.364 8.63604L26.6066 4.3934Z"/>
</mask>
<path d="M26.6066 4.3934C23.7936 1.58035 19.9782 4.74401e-08 16 0V6C18.3869 6 20.6761 6.94821 22.364 8.63604L26.6066 4.3934Z" fill="white" stroke="black" stroke-width="2" mask="url(#path-3-inside-2_330_8749)"/>
<mask id="path-4-inside-3_330_8749" fill="white">
<path d="M31 15C31 11.0218 29.4196 7.20645 26.6066 4.3934L22.364 8.63604C24.0518 10.3239 25 12.6131 25 15H31Z"/>
</mask>
<path d="M31 15C31 11.0218 29.4196 7.20645 26.6066 4.3934L22.364 8.63604C24.0518 10.3239 25 12.6131 25 15H31Z" fill="white" stroke="black" stroke-width="2" mask="url(#path-4-inside-3_330_8749)"/>
<path d="M17.1953 9.5625V21H15.75V11.3672L12.8359 12.4297V11.125L16.9688 9.5625H17.1953Z" fill="black"/>
</svg>
