<svg width="24" height="24" viewBox="0 0 24 24" fill="none" xmlns="http://www.w3.org/2000/svg">
<path d="M11.4 24C10.4 24 9.55 23.5882 8.85 22.7647C8.15 21.9412 7.8 20.9412 7.8 19.7647H10.2C10.2 20.1647 10.315 20.5 10.545 20.7706C10.775 21.0412 11.06 21.1765 11.4 21.1765C11.74 21.1765 12.025 21.0412 12.255 20.7706C12.485 20.5 12.6 20.1647 12.6 19.7647C12.6 19.3647 12.485 19.0294 12.255 18.7588C12.025 18.4882 11.74 18.3529 11.4 18.3529H0V15.5294H11.4C12.4 15.5294 13.25 15.9412 13.95 16.7647C14.65 17.5882 15 18.5882 15 19.7647C15 20.9412 14.65 21.9412 13.95 22.7647C13.25 23.5882 12.4 24 11.4 24ZM0 9.88235V7.05882H16.2C16.72 7.05882 17.15 6.85882 17.49 6.45882C17.83 6.05882 18 5.55294 18 4.94118C18 4.32941 17.83 3.82353 17.49 3.42353C17.15 3.02353 16.72 2.82353 16.2 2.82353C15.68 2.82353 15.25 3.02353 14.91 3.42353C14.57 3.82353 14.4 4.32941 14.4 4.94118H12C12 3.55294 12.405 2.38235 13.215 1.42941C14.025 0.476471 15.02 0 16.2 0C17.38 0 18.375 0.476471 19.185 1.42941C19.995 2.38235 20.4 3.55294 20.4 4.94118C20.4 6.32941 19.995 7.5 19.185 8.45294C18.375 9.40588 17.38 9.88235 16.2 9.88235H0ZM19.8 21.1765V18.3529C20.32 18.3529 20.75 18.1529 21.09 17.7529C21.43 17.3529 21.6 16.8471 21.6 16.2353C21.6 15.6235 21.43 15.1176 21.09 14.7176C20.75 14.3176 20.32 14.1176 19.8 14.1176H0V11.2941H19.8C20.98 11.2941 21.975 11.7706 22.785 12.7235C23.595 13.6765 24 14.8471 24 16.2353C24 17.6235 23.595 18.7941 22.785 19.7471C21.975 20.7 20.98 21.1765 19.8 21.1765Z" fill="black"/>
<rect width="12" height="15" fill="white"/>
<path d="M9.5625 11.2422V13H1.78125V11.5L5.46094 7.55469C5.83073 7.14323 6.1224 6.78125 6.33594 6.46875C6.54948 6.15104 6.70312 5.86719 6.79688 5.61719C6.89583 5.36198 6.94531 5.11979 6.94531 4.89062C6.94531 4.54688 6.88802 4.2526 6.77344 4.00781C6.65885 3.75781 6.48958 3.5651 6.26562 3.42969C6.04688 3.29427 5.77604 3.22656 5.45312 3.22656C5.10938 3.22656 4.8125 3.3099 4.5625 3.47656C4.31771 3.64323 4.13021 3.875 4 4.17188C3.875 4.46875 3.8125 4.80469 3.8125 5.17969H1.55469C1.55469 4.5026 1.71615 3.88281 2.03906 3.32031C2.36198 2.7526 2.81771 2.30208 3.40625 1.96875C3.99479 1.63021 4.69271 1.46094 5.5 1.46094C6.29688 1.46094 6.96875 1.59115 7.51562 1.85156C8.06771 2.10677 8.48438 2.47656 8.76562 2.96094C9.05208 3.4401 9.19531 4.01302 9.19531 4.67969C9.19531 5.05469 9.13542 5.42188 9.01562 5.78125C8.89583 6.13542 8.72396 6.48958 8.5 6.84375C8.28125 7.19271 8.01562 7.54688 7.70312 7.90625C7.39062 8.26562 7.04427 8.63802 6.66406 9.02344L4.6875 11.2422H9.5625Z" fill="black"/>
</svg>
