<svg width="31" height="22" viewBox="0 0 31 22" fill="none" xmlns="http://www.w3.org/2000/svg">
<path d="M5.3934 5.3934C2.58035 8.20644 1 12.0218 1 16H7C7 13.6131 7.94821 11.3239 9.63604 9.63604L5.3934 5.3934Z" fill="black" stroke="white"/>
<path d="M16 1C12.0218 1 8.20645 2.58035 5.3934 5.3934L9.63604 9.63604C11.3239 7.94821 13.6131 7 16 7V1Z" fill="black" stroke="white"/>
<mask id="path-3-inside-1_330_8749" fill="white">
<path d="M26.6066 5.3934C23.7936 2.58035 19.9782 1 16 1V7C18.3869 7 20.6761 7.94821 22.364 9.63604L26.6066 5.3934Z"/>
</mask>
<path d="M26.6066 5.3934C23.7936 2.58035 19.9782 1 16 1V7C18.3869 7 20.6761 7.94821 22.364 9.63604L26.6066 5.3934Z" fill="white" stroke="black" stroke-width="2" mask="url(#path-3-inside-1_330_8749)"/>
<mask id="path-4-inside-2_330_8749" fill="white">
<path d="M31 16C31 12.0218 29.4196 8.20645 26.6066 5.3934L22.364 9.63604C24.0518 11.3239 25 13.6131 25 16H31Z"/>
</mask>
<path d="M31 16C31 12.0218 29.4196 8.20645 26.6066 5.3934L22.364 9.63604C24.0518 11.3239 25 13.6131 25 16H31Z" fill="white" stroke="black" stroke-width="2" mask="url(#path-4-inside-2_330_8749)"/>
<path d="M19.8984 20.8125V22H12.4531V20.9609L16.1797 16.8125C16.638 16.3021 16.9922 15.8698 17.2422 15.5156C17.4974 15.1562 17.6745 14.8359 17.7734 14.5547C17.8776 14.2682 17.9297 13.9766 17.9297 13.6797C17.9297 13.3047 17.8516 12.9661 17.6953 12.6641C17.5443 12.3568 17.3203 12.112 17.0234 11.9297C16.7266 11.7474 16.3672 11.6562 15.9453 11.6562C15.4401 11.6562 15.0182 11.7552 14.6797 11.9531C14.3464 12.1458 14.0964 12.4167 13.9297 12.7656C13.763 13.1146 13.6797 13.5156 13.6797 13.9688H12.2344C12.2344 13.3281 12.375 12.7422 12.6562 12.2109C12.9375 11.6797 13.3542 11.2578 13.9062 10.9453C14.4583 10.6276 15.138 10.4688 15.9453 10.4688C16.6641 10.4688 17.2786 10.5964 17.7891 10.8516C18.2995 11.1016 18.6901 11.4557 18.9609 11.9141C19.237 12.3672 19.375 12.8984 19.375 13.5078C19.375 13.8411 19.3177 14.1797 19.2031 14.5234C19.0938 14.862 18.9401 15.2005 18.7422 15.5391C18.5495 15.8776 18.3229 16.2109 18.0625 16.5391C17.8073 16.8672 17.5339 17.1901 17.2422 17.5078L14.1953 20.8125H19.8984Z" fill="black"/>
</svg>
