<svg width="31" height="25" viewBox="0 0 31 25" fill="none" xmlns="http://www.w3.org/2000/svg">
<path d="M5.3934 5.3934C2.58035 8.20644 1 12.0218 1 16H7C7 13.6131 7.94821 11.3239 9.63604 9.63604L5.3934 5.3934Z" fill="black" stroke="white"/>
<path d="M16 1C12.0218 1 8.20645 2.58035 5.3934 5.3934L9.63604 9.63604C11.3239 7.94821 13.6131 7 16 7V1Z" fill="black" stroke="white"/>
<path d="M26.6066 5.3934C23.7936 2.58035 19.9782 1 16 1V7C18.3869 7 20.6761 7.94821 22.364 9.63604L26.6066 5.3934Z" fill="black" stroke="white"/>
<mask id="path-4-inside-1_330_8749" fill="white">
<path d="M31 16C31 12.0218 29.4196 8.20645 26.6066 5.3934L22.364 9.63604C24.0518 11.3239 25 13.6131 25 16H31Z"/>
</mask>
<path d="M31 16C31 12.0218 29.4196 8.20645 26.6066 5.3934L22.364 9.63604C24.0518 11.3239 25 13.6131 25 16H31Z" fill="white" stroke="black" stroke-width="2" mask="url(#path-4-inside-1_330_8749)"/>
<path d="M14.5547 15.6016H15.5859C16.0911 15.6016 16.5078 15.5182 16.8359 15.3516C17.1693 15.1797 17.4167 14.9479 17.5781 14.6562C17.7448 14.3594 17.8281 14.026 17.8281 13.6562C17.8281 13.2188 17.7552 12.8516 17.6094 12.5547C17.4635 12.2578 17.2448 12.0339 16.9531 11.8828C16.6615 11.7318 16.2917 11.6562 15.8438 11.6562C15.4375 11.6562 15.0781 11.737 14.7656 11.8984C14.4583 12.0547 14.2161 12.2786 14.0391 12.5703C13.8672 12.862 13.7812 13.2057 13.7812 13.6016H12.3359C12.3359 13.0234 12.4818 12.4974 12.7734 12.0234C13.0651 11.5495 13.474 11.1719 14 10.8906C14.5312 10.6094 15.1458 10.4688 15.8438 10.4688C16.5312 10.4688 17.1328 10.5911 17.6484 10.8359C18.1641 11.0755 18.5651 11.4349 18.8516 11.9141C19.138 12.388 19.2812 12.9792 19.2812 13.6875C19.2812 13.974 19.2135 14.2812 19.0781 14.6094C18.9479 14.9323 18.7422 15.2344 18.4609 15.5156C18.1849 15.7969 17.8255 16.0286 17.3828 16.2109C16.9401 16.388 16.4089 16.4766 15.7891 16.4766H14.5547V15.6016ZM14.5547 16.7891V15.9219H15.7891C16.513 15.9219 17.112 16.0078 17.5859 16.1797C18.0599 16.3516 18.4323 16.5807 18.7031 16.8672C18.9792 17.1536 19.1719 17.4688 19.2812 17.8125C19.3958 18.151 19.4531 18.4896 19.4531 18.8281C19.4531 19.3594 19.362 19.8307 19.1797 20.2422C19.0026 20.6536 18.75 21.0026 18.4219 21.2891C18.099 21.5755 17.7188 21.7917 17.2812 21.9375C16.8438 22.0833 16.3672 22.1562 15.8516 22.1562C15.3568 22.1562 14.8906 22.0859 14.4531 21.9453C14.0208 21.8047 13.638 21.6016 13.3047 21.3359C12.9714 21.0651 12.7109 20.7344 12.5234 20.3438C12.3359 19.9479 12.2422 19.4974 12.2422 18.9922H13.6875C13.6875 19.388 13.7734 19.7344 13.9453 20.0312C14.1224 20.3281 14.3724 20.5599 14.6953 20.7266C15.0234 20.888 15.4089 20.9688 15.8516 20.9688C16.2943 20.9688 16.6745 20.8932 16.9922 20.7422C17.3151 20.5859 17.5625 20.3516 17.7344 20.0391C17.9115 19.7266 18 19.3333 18 18.8594C18 18.3854 17.901 17.9974 17.7031 17.6953C17.5052 17.388 17.224 17.1615 16.8594 17.0156C16.5 16.8646 16.0755 16.7891 15.5859 16.7891H14.5547Z" fill="black"/>
</svg>
